<svg width="714" height="149" viewBox="0 0 714 149" fill="none" xmlns="http://www.w3.org/2000/svg">
<path d="M713.596 83.6986C713.59 83.4346 713.583 83.1701 713.576 82.905C712.703 81.0924 712.433 78.9971 711.038 77.4281C709.619 73.3674 706.852 71.4121 702.489 71.1422C695.84 70.7302 696.071 70.9172 689.453 69.9997C686.66 69.5578 683.875 69.0351 681.07 68.6979C678.778 68.4227 676.461 68.3688 674.154 68.217C672.719 68.0984 671.296 67.7617 669.842 67.9503C663.707 67.2775 673.496 67.0606 667.34 66.7015C664.795 66.5535 662.107 66.9243 660.34 64.3545C659.906 63.7239 659.058 63.8078 658.35 63.7357C657.626 63.6624 656.977 63.5705 656.653 62.7145C656.213 61.5522 655.427 60.5962 654.644 59.63C654.167 59.0427 653.456 58.4271 654.114 57.3968C654.696 56.4862 655.406 56.7978 656.161 56.8234C659.851 56.9479 663.514 57.5924 667.221 57.3947C669.166 58.0477 655.227 57.9312 657.231 57.9398C660.777 58.3566 664.377 59.0946 667.391 56.2602C667.702 55.9038 667.649 55.4934 667.588 55.099C668.112 53.6936 669.601 53.7924 671.078 53.8688C671.139 53.872 671.202 53.8384 671.265 53.8213C671.975 51.657 671.999 49.2555 673.523 47.3654C673.681 47.1688 673.663 46.9053 673.554 46.6563C673.747 46.6167 673.937 46.567 674.12 46.4896C674.235 46.4008 674.359 46.3266 674.486 46.2555C674.488 46.256 674.49 46.2566 674.491 46.2571C674.618 46.2555 674.746 46.2539 674.874 46.2523C679.153 45.8552 683.469 45.9733 687.725 45.2813C689.63 45.3925 691.342 44.9607 692.698 43.5141C693.135 42.7473 693.839 42.1194 693.899 41.1591C694.356 39.8739 694.378 38.6106 693.806 37.3768C693.78 37.2961 693.747 37.217 693.698 37.1422C693.273 35.9932 692.849 34.8432 692.424 33.6949C692.33 32.7437 691.857 31.995 691.185 31.3532C690.961 29.9195 690.534 28.5846 689.371 27.6088C688.828 26.9558 688.285 26.3038 687.741 25.6513C687.38 24.1732 686.21 23.2979 685.245 22.2703C684.848 21.9951 684.829 21.2454 684.118 21.364C684.145 21.2534 684.118 21.1588 684.035 21.0808C683.151 19.0304 681.341 17.7072 680.012 16.0084C679.064 14.7965 678.393 13.1896 676.707 12.6755C676.741 12.7583 676.764 12.8422 676.784 12.9261C676.758 12.8428 676.732 12.7594 676.707 12.6755C675.029 11.5784 673.172 11.0435 671.19 10.8992C669.218 9.87212 667.041 9.84434 664.907 9.60493C664.715 9.505 664.5 9.4505 664.298 9.47134C660.725 8.68152 673.063 8.21607 669.405 8.07981C667.477 7.70039 665.541 7.42518 663.569 7.54221C660.013 6.40505 656.284 6.49643 652.636 6.10366C642.121 4.97024 530.547 3.98697 520.007 3.11272C516.275 2.80278 512.54 2.1316 508.765 2.5762C508.224 2.11289 507.556 2.17168 506.911 2.11183C495.834 1.08582 484.698 1.43477 473.605 0.633735C467.19 0.170426 460.725 0.160802 454.279 0.391121C453.003 -0.148605 451.667 0.263403 450.364 0.146908C449.675 -0.141124 448.966 0.0865172 448.267 0.0678138C446.351 0.0170476 444.436 0.454716 442.519 0.0875955C433.019 0.458991 423.518 0.830911 414.018 1.20337C413.368 1.61645 412.636 1.42516 411.941 1.47913C408.861 1.71906 405.755 1.5192 402.689 2.01671C402.31 2.04503 401.931 2.07229 401.554 2.10061C401.498 2.24329 401.493 2.36726 401.535 2.47307C400.925 2.14656 400.277 2.3555 399.651 2.36886C396.161 2.44474 392.728 3.30349 389.216 3.15868C389.034 3.31204 388.845 3.45526 388.657 3.59955C388.666 3.52527 388.678 3.45366 388.685 3.37564C384.639 3.22708 380.605 3.35159 376.586 3.86834C376.028 3.99392 375.47 4.12004 374.912 4.24562C373.651 4.31723 372.391 4.38777 371.131 4.45937C370.745 4.44548 370.355 4.38883 369.973 4.42356C359.331 5.38972 322.099 6.3623 311.458 7.3509C311.157 7.37816 310.873 7.57909 310.582 7.69986C303.328 8.66763 296.085 9.72784 288.817 10.5775C281.077 11.4822 273.298 12.0604 265.565 13.0148C256.59 14.1231 141.235 15.1107 132.384 17.1119C129.294 17.8114 126.227 18.8674 123.001 18.7984C111.428 18.551 99.8555 18.2801 88.284 17.9851C73.7037 17.6148 59.1207 17.3962 44.5382 17.6768C34.4521 17.8713 24.3713 18.3282 14.2884 18.667C11.0444 18.4511 7.79778 18.0503 4.55806 18.1048C3.17272 18.1283 1.22474 17.9472 0.616889 20.0179C-0.320673 21.0845 0.991274 22.5418 0 23.5983C0.0249946 24.2518 0.0505238 24.9059 0.0760502 25.5594C1.15401 26.6891 -0.0600933 28.3532 0.982234 29.4903C1.1088 29.6266 1.23538 29.7618 1.36248 29.8975C1.52521 30.2764 1.79589 30.5399 2.18996 30.6676C2.66592 31.6054 3.60507 32.0319 4.44213 32.4417C6.1625 33.2866 6.89744 34.466 6.79587 36.4459C6.70919 38.1398 7.54411 39.4705 9.10973 40.4377C13.0615 42.8777 17.3994 43.7455 21.925 43.8513C23.2146 43.8812 23.4758 44.2419 23.5008 45.5036C23.563 48.7136 23.246 52.0493 25.4386 54.828C25.0244 57.1125 25.7811 59.2709 26.1422 61.4726C26.9096 64.0996 29.1623 65.039 31.3257 66.0789C31.5804 66.1853 31.8356 66.2916 32.0904 66.3969C32.9657 67.0953 33.9464 66.7186 34.8946 66.6753C35.0429 66.7768 35.1908 66.8773 35.3375 66.9788C36.3942 67.3999 36.4182 66.4819 36.7059 65.9106C36.9223 65.481 36.8537 64.7777 37.5791 64.8183C38.1651 64.8514 38.3172 65.4569 38.664 65.8187C39.8988 67.106 39.7462 68.8016 40.0892 70.3476C40.087 70.3732 40.0876 70.3989 40.0849 70.4245C39.8897 70.9311 40.1115 71.5013 39.8435 71.9961C40.2679 74.4142 40.3258 76.9215 41.7154 79.1862C37.7891 80.0867 33.999 80.9422 30.2152 81.8272C24.4569 83.1738 18.7045 84.5413 12.9499 85.9002C10.41 86.2331 7.88924 86.6414 5.52433 87.699C5.19196 87.7294 4.90957 87.832 4.82076 88.2055C4.70909 88.2397 4.60592 88.291 4.51073 88.36C4.37246 88.4647 4.23525 88.57 4.09752 88.6747C4.13155 89.1284 4.08423 89.6559 4.49265 89.9375C6.13325 91.0698 5.86096 92.5105 5.30204 94.0886C4.58039 96.1288 4.25812 98.2396 4.5639 100.412C4.69047 100.548 4.81704 100.684 4.94361 100.821C4.90638 101.646 5.58177 101.762 6.11942 102.016C6.76236 102.765 7.57761 103.235 8.51518 103.505C9.30064 103.879 9.9638 104.539 10.9077 104.543C11.6874 104.782 12.4675 105.021 13.2471 105.261C14.8016 105.896 16.4097 105.994 18.0519 105.747C18.3109 105.723 18.5694 105.699 18.8284 105.676L19.0092 105.721L19.1942 105.693C20.9306 105.762 22.6621 105.775 24.3431 105.223C25.7827 104.973 27.2935 105.279 28.6842 104.656C52.2153 101.641 87.6288 98.7227 90.834 99.6226C86.4881 100.15 82.3832 100.731 78.2612 101.131C65.4603 102.371 52.7189 104.031 40.069 106.363C35.7933 107.153 31.5017 107.901 27.334 109.178C25.6588 109.691 23.9203 110.226 23.3343 112.228C22.6828 112.721 22.9498 113.424 22.9658 114.041C23.0301 116.455 22.978 118.887 23.2641 121.276C23.7693 125.49 23.3311 129.877 25.37 133.833C25.5104 134.224 25.7933 134.475 26.1629 134.637C30.0243 137.921 34.6419 138.637 39.4335 138.256C46.8755 137.664 54.2903 136.73 61.7318 136.121C72.2114 135.264 82.6842 133.972 93.2324 134.941C95.3586 135.135 97.4783 135.363 99.6172 135.281C99.9299 135.395 100.254 135.377 100.579 135.376C101.38 135.374 102.18 135.346 102.98 135.312C106.331 135.349 109.682 135.394 113.031 135.354C113.351 135.35 113.672 135.349 113.992 135.346C114.234 135.357 114.476 135.358 114.716 135.34C121.173 135.273 127.631 135.25 134.087 135.17C139.528 135.102 251.345 135.27 256.797 135.257C257.06 135.333 257.323 135.41 257.538 135.283C257.608 135.286 257.679 135.288 257.749 135.29C257.776 135.302 257.805 135.31 257.832 135.323C258.123 135.332 258.413 135.331 258.704 135.325C265.251 135.555 271.797 135.828 278.346 135.945C281.251 135.997 284.164 136.398 287.073 135.98C289.02 136.046 290.968 136.099 292.915 136.179C310.453 136.9 354.559 135.853 372.084 135.507C382.402 135.303 392.727 135.429 403.039 134.894C405.345 135.393 407.645 134.858 409.947 134.822C415.245 134.743 420.542 134.486 425.843 134.723C428.801 134.894 431.759 135.063 434.717 135.233C439.957 136.039 445.235 136.382 450.527 136.578C451.457 136.963 452.447 136.868 453.413 136.915C460.095 137.237 466.768 137.746 473.447 138.132C482.777 138.67 492.082 139.664 501.394 140.497C510.313 141.297 519.225 142.187 528.148 142.945C532.987 143.357 537.814 144.007 542.688 143.927C542.911 144.045 543.128 144.251 543.358 144.266C550.859 144.755 659.403 145.225 666.905 145.698C667.408 145.708 667.911 145.718 668.415 145.728C668.507 145.769 668.595 145.772 668.681 145.765C675.768 146.816 666.958 147.187 674.098 147.593C675.493 147.807 676.89 147.984 678.308 147.879C678.477 147.947 678.66 147.986 678.827 147.98C679.087 148.031 679.347 148.081 679.607 148.132C681.37 148.415 683.169 148.24 684.933 148.543C684.986 148.54 685.04 148.539 685.093 148.537C685.104 148.582 685.113 148.626 685.126 148.67C686.165 148.685 687.211 148.633 688.213 149C688.224 148.894 688.239 148.788 688.257 148.683C688.627 148.636 688.996 148.591 689.366 148.544C689.621 148.023 689.791 147.467 690.085 146.959C691.022 145.345 691.814 143.826 691.638 141.712C691.499 140.038 692.693 138.469 694.431 137.552C695.853 136.803 696.211 138.185 697.044 138.599C697.825 138.986 698.642 139.424 699.407 138.766C700.201 138.082 701.272 137.42 700.598 136.045C700.139 135.764 700.229 135.27 700.138 134.846C699.382 134.593 698.293 135.282 697.858 134.269C697.445 133.308 698.764 133.148 699.001 132.43C699.041 132.309 699.023 132.186 698.951 132.063C698.798 131.814 698.646 131.566 698.494 131.317C698.421 131.106 698.319 130.932 698.05 130.99C697.486 130.57 697.675 129.615 696.894 129.349C696.609 128.983 696.323 128.618 696.037 128.252C695.812 127.74 695.458 127.415 694.862 127.444C688.92 125.084 682.603 124.705 676.365 123.905C672.417 123.267 668.469 122.629 664.52 121.992C658.467 120.449 668.226 119.841 662.04 119.177C661.76 118.752 661.035 119.152 660.833 118.575C661.886 118.44 662.924 118.308 663.959 118.175C664.498 118.143 665.034 118.088 665.566 117.97C665.913 117.937 666.262 117.906 666.61 117.874C671.271 117.702 659.978 117.531 664.64 117.359C664.784 117.427 664.938 117.467 665.081 117.473C666.392 117.762 667.731 117.531 669.052 117.616C673.062 117.874 675.835 116.149 677.509 112.531C677.983 111.976 678.457 111.422 678.931 110.867C680.055 110.32 680.468 109.156 680.608 108.156C680.82 106.648 681.65 106.653 682.742 106.689C685.329 106.776 687.919 106.824 690.507 106.888C692.445 107.314 694.403 107.042 696.354 107.055C700.328 107.676 697.419 107.17 701.408 107.36C703.39 107.456 705.31 106.698 707.03 105.608C708.141 105.343 708.429 104.365 708.844 103.496C709.62 102.289 709.127 101.151 708.632 100.031C708.201 99.0583 708.423 98.5512 709.537 98.564C709.919 98.5688 710.308 98.5971 710.652 98.3711C710.537 97.6913 710.835 96.9224 710.215 96.3533C710.178 95.977 710.14 95.6003 710.103 95.2241C710.218 94.8271 710.332 94.4289 710.446 94.0314C711.06 93.1951 712.211 92.8119 712.444 91.6512C712.539 91.6673 712.622 91.6411 712.692 91.5759C713.865 89.052 714.445 86.4581 713.596 83.6986ZM668.546 57.0709C668.544 57.0666 668.542 57.0639 668.541 57.0596C668.551 57.0612 668.562 57.0623 668.573 57.0644C668.563 57.0666 668.555 57.0687 668.546 57.0709ZM668.689 53.4189C668.685 53.3516 668.682 53.2842 668.682 53.218C668.727 53.2815 668.772 53.3451 668.813 53.4103C668.768 53.4114 668.731 53.4167 668.689 53.4189ZM675.381 45.4042C675.383 45.5074 675.388 45.6073 675.397 45.7056C675.353 45.7088 675.308 45.7115 675.264 45.7147C675.302 45.611 675.342 45.5074 675.381 45.4042ZM690.031 44.7966C690.031 44.7908 690.031 44.786 690.031 44.7801C690.042 44.7854 690.053 44.7902 690.064 44.7956C690.052 44.7956 690.042 44.7961 690.031 44.7966ZM45.4173 65.4371C45.4391 65.3981 45.4513 65.3629 45.4673 65.326C45.4928 65.3613 45.5188 65.396 45.5444 65.4318C45.5018 65.4334 45.4598 65.4355 45.4173 65.4371ZM117.526 135.009C117.527 135.011 117.528 135.013 117.53 135.014C117.527 135.015 117.524 135.015 117.521 135.016C117.522 135.014 117.524 135.012 117.526 135.009ZM313.34 7.69345C313.342 7.70895 313.345 7.72283 313.346 7.73833C313.333 7.72337 313.32 7.70894 313.307 7.69397C313.318 7.69344 313.329 7.69345 313.34 7.69345ZM687.353 142.188C687.327 142.278 687.31 142.367 687.292 142.457C687.243 142.375 687.188 142.312 687.129 142.262C687.205 142.237 687.273 142.209 687.353 142.188Z" fill="#dff7e6" style="fill:#dff7e6;fill:color(display-p3 0.8510 0.9412 0.8745);fill-opacity:1;"/>
</svg>
